<?xml version="1.0" encoding="UTF-8" standalone="no"?>
<svg
   xmlns:dc="http://purl.org/dc/elements/1.1/"
   xmlns:cc="http://creativecommons.org/ns#"
   xmlns:rdf="http://www.w3.org/1999/02/22-rdf-syntax-ns#"
   xmlns:svg="http://www.w3.org/2000/svg"
   xmlns="http://www.w3.org/2000/svg"
   xmlns:sodipodi="http://sodipodi.sourceforge.net/DTD/sodipodi-0.dtd"
   xmlns:inkscape="http://www.inkscape.org/namespaces/inkscape"
   inkscape:export-ydpi="96"
   inkscape:export-xdpi="96"
   inkscape:export-filename="C:\Users\nonni\Documents\Coding\Projects\bethanyshelton\images\nav-logo3.png"
   sodipodi:docname="nav-logo.svg"
   inkscape:version="1.0 (4035a4fb49, 2020-05-01)"
   id="svg8"
   version="1.1"
   viewBox="0 0 98.689585 16.933333"
   height="64"
   width="373">
  <defs
     id="defs2">
    <rect
       id="rect902"
       height="29.633333"
       width="192.88126"
       y="-5.0702934"
       x="-19.610853" />
    <rect
       x="83.872917"
       y="115.35833"
       width="6.6145835"
       height="12.170833"
       id="rect2793" />
    <rect
       id="rect852"
       height="11.90625"
       width="5.5562501"
       y="46.566666"
       x="130.96875" />
    <rect
       id="rect838"
       height="45.772919"
       width="185.20833"
       y="35.189583"
       x="1.5875" />
    <rect
       x="-3.175"
       y="19.84375"
       width="105.83333"
       height="14.2875"
       id="rect853" />
  </defs>
  <sodipodi:namedview
     units="px"
     inkscape:object-nodes="false"
     inkscape:window-maximized="1"
     inkscape:window-y="-9"
     inkscape:window-x="-9"
     inkscape:window-height="1011"
     inkscape:window-width="1920"
     inkscape:snap-smooth-nodes="false"
     inkscape:snap-intersection-paths="false"
     inkscape:object-paths="true"
     showborder="false"
     showgrid="false"
     inkscape:document-rotation="0"
     inkscape:current-layer="layer2"
     inkscape:document-units="px"
     inkscape:cy="49.628726"
     inkscape:cx="219.76959"
     inkscape:zoom="2.8576762"
     inkscape:pageshadow="2"
     inkscape:pageopacity="0.0"
     borderopacity="1.0"
     bordercolor="#666666"
     pagecolor="#ffffff"
     id="base" />
  <metadata
     id="metadata5">
    <rdf:RDF>
      <cc:Work
         rdf:about="">
        <dc:format>image/svg+xml</dc:format>
        <dc:type
           rdf:resource="http://purl.org/dc/dcmitype/StillImage" />
        <dc:title></dc:title>
      </cc:Work>
    </rdf:RDF>
  </metadata>
  <g
     id="layer1"
     inkscape:groupmode="layer"
     inkscape:label="Layer 1"
     transform="translate(-24.839146,-55.254707)">
    <text
       xml:space="preserve"
       id="text851"
       style="font-style:normal;font-variant:normal;font-weight:normal;font-stretch:normal;font-size:10.5833px;line-height:1.25;font-family:'a Auto Signature';-inkscape-font-specification:'a Auto Signature';white-space:pre;shape-inside:url(#rect853);fill:#000000;fill-opacity:1;stroke:none;" />
    <text
       style="font-style:normal;font-variant:normal;font-weight:normal;font-stretch:normal;font-size:10.5833px;line-height:1.25;font-family:'a Auto Signature';-inkscape-font-specification:'a Auto Signature';white-space:pre;shape-inside:url(#rect838);fill:#000000;fill-opacity:1;stroke:none;"
       id="text836"
       xml:space="preserve" />
    <text
       style="font-style:normal;font-variant:normal;font-weight:normal;font-stretch:normal;font-size:10.5833px;line-height:1.25;font-family:Cormorant;-inkscape-font-specification:Cormorant;white-space:pre;shape-inside:url(#rect852);fill:#000000;fill-opacity:1;stroke:none;"
       id="text850"
       xml:space="preserve" />
  </g>
  <g
     inkscape:label="Top"
     id="layer2"
     inkscape:groupmode="layer"
     transform="translate(-24.839146,-55.254707)">
    <text
       xml:space="preserve"
       id="text2791"
       style="font-style:normal;font-weight:normal;font-size:10.5833px;line-height:1.25;font-family:sans-serif;white-space:pre;shape-inside:url(#rect2793);fill:#000000;fill-opacity:1;stroke:none;" />
    <g
       transform="matrix(0.75211844,0,0,0.68884121,39.185885,56.470309)"
       id="g923">
      <g
         style="font-style:normal;font-variant:normal;font-weight:normal;font-stretch:normal;font-size:17.3517px;line-height:1.25;font-family:'a Auto Signature';-inkscape-font-specification:'a Auto Signature';fill:#1f1f33;fill-opacity:1;stroke:none;stroke-width:0.433794"
         id="text848"
         transform="matrix(0.60530411,0,0,1.1381682,-28.665982,-37.5289)"
         aria-label="Bethany Shelton">
        <path
           id="path2797"
           style="font-style:normal;font-variant:normal;font-weight:normal;font-stretch:normal;font-family:'a Auto Signature';-inkscape-font-specification:'a Auto Signature';fill:#1f1f33;fill-opacity:1;stroke-width:0.433794"
           d="m 46.218225,44.84514 q -1.440327,0.423625 -2.389248,0.728636 -0.948921,0.321955 -1.948677,0.711691 -0.982812,0.40668 -1.491162,0.796416 -0.491406,0.389735 -0.491406,0.762525 0,0.406681 1.186152,0.406681 1.084481,0 2.575643,-1.016701 1.508106,-0.999756 2.558698,-2.389248 z m -7.879434,1.220041 q 0.64391,-1.253931 1.626721,-2.982323 0.999757,-1.728392 1.711447,-3.134829 0.728636,-1.406436 1.304767,-2.965378 l 0.16945,-0.474461 -0.37279,0.254176 q -0.711691,0.491405 -1.152262,0.847251 -0.44057,0.355845 -0.982811,0.898086 -0.525295,0.525295 -0.796416,1.101426 -0.254175,0.576131 -0.254175,1.203096 0,0.254176 -0.10167,0.406681 -0.10167,0.13556 -0.20334,0.13556 -0.10167,0 -0.203341,-0.16945 -0.08472,-0.186395 -0.08472,-0.406681 0,-1.813117 3.541509,-4.28709 0.694746,-0.491405 0.965866,-0.491405 0.271121,0 0.271121,0.44057 0,0.474461 -0.847251,2.406193 l -0.355846,0.779471 0.474461,-0.610021 q 1.118371,-1.491161 2.304523,-2.338412 1.186151,-0.847251 1.965622,-0.847251 1.118371,0 1.118371,0.694745 0,0.813361 -1.406437,2.219798 -1.406436,1.406437 -2.355357,1.931732 l -0.220285,0.118615 h 0.54224 q 2.762038,0 2.762038,1.779227 0,0.847251 -0.50835,1.813117 3.660124,-1.084481 4.82933,-1.728392 0.10167,-0.05084 0.118615,-0.05084 0.101671,0 0.101671,0.118616 0,0.08472 -0.135561,0.13556 -1.067536,0.57613 -5.117395,1.830062 -0.999757,1.592832 -2.863709,2.745093 -1.847007,1.152261 -3.795684,1.152261 -1.253932,0 -1.253932,-0.54224 0,-0.321956 0.271121,-0.660856 0.27112,-0.321956 0.830306,-0.643911 0.559185,-0.30501 1.152261,-0.576131 0.610021,-0.254175 1.541997,-0.57613 0.948921,-0.305011 1.677557,-0.525296 0.728636,-0.220285 1.830062,-0.54224 0.660856,-1.355602 0.660856,-2.118128 0,-1.338656 -1.999513,-1.338656 -1.338656,0 -2.202852,0.44057 -0.06778,0.03389 -0.186395,0.03389 -0.152506,0 -0.288066,-0.06778 -0.118615,-0.08472 -0.118615,-0.186395 0,-0.13556 0.23723,-0.20334 0.948921,-0.321956 2.050348,-0.915031 0.847251,-0.457516 1.965622,-1.660612 1.135316,-1.220042 1.135316,-1.847007 0,-0.406681 -0.593075,-0.406681 -0.593076,0 -1.796172,1.101426 -1.203097,1.101427 -1.948678,2.016458 -1.016701,1.236986 -2.389247,3.541509 -1.355602,2.304522 -2.185908,3.456784 -0.05083,0.06778 -0.16945,0.06778 -0.10167,0 -0.20334,-0.08472 -0.10167,-0.06778 -0.10167,-0.169451 0,-0.08472 0.03389,-0.118615 z" />
        <path
           id="path2799"
           style="font-style:normal;font-variant:normal;font-weight:normal;font-stretch:normal;font-family:'a Auto Signature';-inkscape-font-specification:'a Auto Signature';fill:#1f1f33;fill-opacity:1;stroke-width:0.433794"
           d="m 52.030366,43.150638 q -0.10167,0.16945 -0.10167,0.3389 0,0.254176 0.406681,0.254176 0.660856,0 1.135316,-0.406681 0.491406,-0.423625 0.491406,-0.796416 0,-0.288065 -0.406681,-0.288065 -0.457515,0 -0.881141,0.254175 -0.423625,0.237231 -0.643911,0.643911 z m 1.965623,-1.372547 q 0.626965,0 0.626965,0.508351 0,0.559186 -0.694745,1.135316 -0.694746,0.576131 -1.694502,0.576131 -0.372791,0 -0.559186,-0.118615 -0.03389,0.20334 -0.03389,0.321955 0,0.525296 0.440571,0.864196 0.44057,0.321956 1.372546,0.321956 2.609533,0 8.014994,-2.609533 0.16945,-0.08473 0.237231,-0.118616 0.10167,-0.05084 0.118615,-0.05084 0.10167,0 0.10167,0.118616 0,0.08472 -0.13556,0.13556 -1.762282,0.948921 -4.202365,1.863952 -2.423138,0.898086 -4.236255,0.898086 -1.236986,0 -1.830062,-0.372791 -0.593076,-0.37279 -0.593076,-0.965866 0,-0.864196 0.982811,-1.677557 0.965866,-0.830306 2.084238,-0.830306 z" />
        <path
           id="path2801"
           style="font-style:normal;font-variant:normal;font-weight:normal;font-stretch:normal;font-family:'a Auto Signature';-inkscape-font-specification:'a Auto Signature';fill:#1f1f33;fill-opacity:1;stroke-width:0.433794"
           d="m 61.705973,42.659232 q 1.372546,-0.626965 2.575643,-1.575886 0.559185,-0.881141 1.236986,-1.762282 -0.660856,0.05083 -1.406437,0.10167 -0.74558,0.05083 -1.135316,0.08472 -0.389735,0.01694 -0.44057,0.01694 -0.135561,0 -0.135561,-0.118615 0,-0.06778 0.08473,-0.06778 2.287577,-0.271121 3.304278,-0.355846 0.915031,-1.135316 1.728392,-1.914787 0.830306,-0.796416 1.033646,-0.796416 0.237231,0 0.237231,0.474461 0,0.288065 -1.745337,2.135072 2.253687,-0.152505 4.72766,-0.152505 0.711691,0 0.711691,0.23723 0,0.16945 -0.20334,0.16945 -0.03389,0 -0.610021,-0.01694 -0.576131,-0.03389 -0.881141,-0.03389 -1.033646,0 -4.08375,0.169451 -0.10167,0.118615 -1.135316,1.152261 -2.236742,3.050103 -2.236742,4.744605 0,0.677801 1.050591,0.677801 0.898086,0 2.440083,-0.457515 1.558941,-0.457516 3.100938,-1.101427 1.541997,-0.660855 2.423138,-1.050591 0.898086,-0.389735 1.220041,-0.559186 0.10167,-0.05084 0.13556,-0.05084 0.08473,0 0.08473,0.118616 0,0.08472 -0.118615,0.13556 -0.186395,0.10167 -0.762526,0.37279 -0.57613,0.254175 -1.796172,0.762526 -1.203096,0.508351 -2.372302,0.948921 -1.152262,0.423626 -2.423138,0.745581 -1.253931,0.3389 -2.050347,0.3389 -0.745581,0 -1.118372,-0.220285 -0.37279,-0.20334 -0.37279,-0.796416 0,-1.338656 1.186151,-3.422894 -1.033646,0.745581 -2.168962,1.270877 -0.06778,0.03389 -0.118615,0.03389 -0.08472,0 -0.08472,-0.10167 0,-0.08472 0.118615,-0.135561 z" />
        <path
           id="path2803"
           style="font-style:normal;font-variant:normal;font-weight:normal;font-stretch:normal;font-family:'a Auto Signature';-inkscape-font-specification:'a Auto Signature';fill:#1f1f33;fill-opacity:1;stroke-width:0.433794"
           d="m 74.516407,42.201717 q 4.11764,-2.982323 5.066561,-4.964891 0.30501,-0.660855 0.30501,-0.864196 0,-0.13556 -0.118615,-0.13556 -0.406681,0 -2.287578,2.067292 -1.880897,2.067293 -2.965378,3.897355 z m 5.236011,-6.269657 q 0.3389,0 0.3389,0.44057 0,0.389736 -0.288065,1.016701 -0.999756,2.118128 -5.608801,5.388517 -0.525296,0.965866 -0.525296,1.558941 0,0.372791 0.118615,0.372791 0.05083,0 0.355845,-0.338901 0.321956,-0.3389 0.711691,-0.74558 0.389736,-0.406681 0.982811,-0.745581 0.593076,-0.338901 1.152262,-0.338901 0.288065,0 0.457515,0.440571 0.16945,0.44057 0.237231,0.982811 0.06778,0.542241 0.3389,0.982811 0.288065,0.440571 0.779471,0.440571 0.677801,0 1.575887,-0.254176 0.915031,-0.27112 1.796172,-0.660855 0.881141,-0.406681 1.592831,-0.779471 0.728636,-0.372791 1.287822,-0.694746 0.576131,-0.338901 0.593076,-0.338901 0.10167,-0.05084 0.118615,-0.05084 0.08473,0 0.08473,0.118616 0,0.08472 -0.118615,0.13556 -0.01694,0 -0.525296,0.288065 -0.491405,0.27112 -1.033646,0.559186 -0.542241,0.27112 -1.372547,0.660855 -0.830306,0.372791 -1.592831,0.660856 -0.762526,0.27112 -1.609777,0.474461 -0.830306,0.20334 -1.491162,0.20334 -0.37279,0 -0.643911,-0.440571 -0.27112,-0.44057 -0.37279,-0.965866 -0.10167,-0.525295 -0.254175,-0.965866 -0.135561,-0.44057 -0.288066,-0.44057 -0.423625,0 -0.948921,0.355845 -0.50835,0.338901 -0.881141,0.762526 -0.37279,0.40668 -0.677801,0.762526 -0.288065,0.3389 -0.3389,0.3389 -0.677801,0 -0.677801,-0.47446 0,-0.948921 0.559186,-2.168963 0.57613,-1.236986 1.440326,-2.338412 0.864196,-1.118372 1.796173,-2.084238 0.931976,-0.965866 1.728392,-1.541997 0.81336,-0.57613 1.203096,-0.57613 z" />
        <path
           id="path2805"
           style="font-style:normal;font-variant:normal;font-weight:normal;font-stretch:normal;font-family:'a Auto Signature';-inkscape-font-specification:'a Auto Signature';fill:#1f1f33;fill-opacity:1;stroke-width:0.433794"
           d="m 97.138008,42.862573 q -4.337925,2.168962 -6.456053,2.168962 -0.965866,0 -1.491161,-0.389735 -0.508351,-0.406681 -0.508351,-1.389492 0,-0.16945 -0.118615,-0.16945 -0.355846,0 -1.745337,0.576131 -1.389492,0.57613 -1.609777,0.57613 -0.3389,0 -0.576131,-0.152505 -0.23723,-0.152505 -0.23723,-0.355845 0,-0.694746 1.236986,-1.101427 1.220042,-0.40668 2.406193,-0.40668 0.13556,0 0.305011,0.06778 0.186395,0.06778 0.186395,0.118615 0,0.05083 -0.186395,0.05083 -1.067537,0 -1.813117,0.220285 -0.745581,0.220286 -0.999757,0.474461 -0.27112,0.23723 -0.27112,0.440571 0,0.152505 0.20334,0.152505 0.355846,0 1.660612,-0.491406 1.321712,-0.491405 1.491162,-0.491405 0.08473,0 0.457515,0.288065 0.372791,0.27112 0.372791,0.457515 0,0.779471 0.27112,1.084482 0.27112,0.30501 0.864196,0.30501 0.745581,0 1.813117,-0.30501 1.084481,-0.321956 1.897842,-0.660856 0.813361,-0.355846 1.728392,-0.779471 0.915031,-0.44057 1.033647,-0.491406 0.10167,-0.05084 0.118615,-0.05084 0.08473,0 0.08473,0.118616 0,0.08472 -0.118615,0.13556 z" />
        <path
           id="path2807"
           style="font-style:normal;font-variant:normal;font-weight:normal;font-stretch:normal;font-family:'a Auto Signature';-inkscape-font-specification:'a Auto Signature';fill:#1f1f33;fill-opacity:1;stroke-width:0.433794"
           d="m 98.747786,44.84514 q -0.593076,0 -0.593076,-0.508351 0,-0.288065 0.288065,-0.948921 0.288066,-0.660855 0.288066,-0.864196 0,-0.152505 -0.203341,-0.152505 -0.186395,0 -0.54224,0.118615 -0.338901,0.118615 -0.593076,0.254176 l -0.254175,0.118615 q -0.06778,0.03389 -0.118615,0.03389 -0.08473,0 -0.08473,-0.10167 0,-0.08472 0.118615,-0.135561 0.982811,-0.491405 1.694502,-0.491405 0.61002,0 0.61002,0.355845 0,0.01694 -0.13556,0.372791 -0.13556,0.3389 -0.288065,0.762526 -0.13556,0.40668 -0.13556,0.593075 0,0.16945 0.118615,0.16945 0.05083,0 0.50835,-0.457515 0.457516,-0.474461 1.186159,-0.931976 0.72863,-0.474461 1.42338,-0.474461 0.38973,0 0.57613,0.389736 0.20334,0.37279 0.25418,0.847251 0.0508,0.457515 0.3389,0.847251 0.28806,0.37279 0.86419,0.37279 0.74558,0 1.84701,-0.321955 1.11837,-0.338901 1.96562,-0.711691 0.84725,-0.37279 1.77923,-0.813361 0.94892,-0.457515 1.08448,-0.508351 0.10167,-0.05084 0.11861,-0.05084 0.0847,0 0.0847,0.118616 0,0.08472 -0.11862,0.13556 -4.57515,2.287577 -6.65939,2.287577 -0.62696,0 -1.06753,-0.152505 -0.42363,-0.16945 -0.62697,-0.40668 -0.18641,-0.254176 -0.32196,-0.525296 -0.11862,-0.288065 -0.16945,-0.525296 -0.0339,-0.254175 -0.15251,-0.40668 -0.10166,-0.16945 -0.27111,-0.16945 -0.42363,0 -0.94892,0.30501 -0.50835,0.288065 -0.881148,0.643911 -0.355846,0.3389 -0.643911,0.643911 -0.288065,0.288065 -0.3389,0.288065 z" />
        <path
           id="path2809"
           style="font-style:normal;font-variant:normal;font-weight:normal;font-stretch:normal;font-family:'a Auto Signature';-inkscape-font-specification:'a Auto Signature';fill:#1f1f33;fill-opacity:1;stroke-width:0.433794"
           d="m 113.11716,46.861597 0.35585,-0.220285 q 0.38974,-0.694746 1.11837,-2.185907 0.0339,-0.06778 0.23723,-0.525296 -0.4914,0.37279 -1.15226,0.610021 -0.66086,0.220285 -1.15226,0.220285 -0.62697,0 -0.62697,-0.355846 0,-0.220285 0.22029,-0.796415 0.23723,-0.593076 0.23723,-0.881141 0,-0.338901 -0.22029,-0.338901 -0.1525,0 -0.37279,0.06778 -0.22028,0.06778 -0.38973,0.152505 -0.15251,0.06778 -0.3389,0.169451 -0.1864,0.08472 -0.20334,0.08472 -0.0678,0.03389 -0.11862,0.03389 -0.0847,0 -0.0847,-0.10167 0,-0.08472 0.11861,-0.135561 1.0167,-0.47446 1.64367,-0.47446 0.61002,0 0.61002,0.40668 0,0.08473 -0.20334,0.677801 -0.1864,0.593076 -0.1864,0.881141 0,0.321956 0.27112,0.321956 0.55919,0 1.37255,-0.491406 0.83031,-0.491406 0.91503,-0.898086 0.0847,-0.37279 0.1864,-0.37279 0.50835,0 0.50835,0.40668 0,0.10167 -0.11862,0.389735 -0.11861,0.288066 -0.28806,0.626966 -0.16945,0.338901 -0.20334,0.440571 -0.27112,0.6778 -0.81336,1.694502 1.74533,-0.864196 4.65988,-2.152018 2.93148,-1.304766 3.27038,-1.457272 0.10168,-0.05084 0.11862,-0.05084 0.0847,0 0.0847,0.118616 0,0.08472 -0.11862,0.13556 -0.0678,0.03389 -3.25344,1.423381 -3.16872,1.389492 -4.94795,2.355358 -1.27088,2.270633 -2.84676,4.236255 -1.57589,1.982567 -2.16897,1.982567 -0.35584,0 -0.35584,-0.44057 0,-2.795929 4.23625,-5.557967 z m 0.0847,0.254176 q -1.72839,1.203096 -2.91454,2.728148 -1.18616,1.541996 -1.18616,2.575643 0,0.152505 0.10167,0.152505 0.40669,0 1.59284,-1.660612 1.18615,-1.643667 2.40619,-3.795684 z" />
        <path
           id="path2811"
           style="font-style:normal;font-variant:normal;font-weight:normal;font-stretch:normal;font-family:'a Auto Signature';-inkscape-font-specification:'a Auto Signature';fill:#1f1f33;fill-opacity:1;stroke-width:0.433794"
           d="m 137.94161,44.84514 q -1.45727,0.423625 -2.40619,0.728636 -0.93197,0.321955 -1.94868,0.711691 -1.0167,0.40668 -1.5081,0.796416 -0.50835,0.389735 -0.50835,0.762525 0,0.406681 1.1692,0.406681 1.77923,0 3.20261,-1.033646 1.44033,-1.033647 1.99951,-2.372303 z m 1.22005,-7.998049 q 0,-0.491406 -0.37279,-0.491406 -0.77948,0 -2.30453,1.406437 -1.5081,1.406436 -1.5081,2.152017 0,0.457516 0.40668,0.779471 0.42362,0.305011 1.0167,0.542241 0.61002,0.220285 1.20309,0.50835 0.59308,0.288066 0.99976,0.881141 0.42363,0.576131 0.42363,1.423382 0,0.220285 -0.017,0.30501 3.52456,-1.033646 4.74461,-1.694502 0.10167,-0.05084 0.11861,-0.05084 0.0847,0 0.0847,0.118616 0,0.08472 -0.11862,0.13556 -1.10143,0.61002 -4.88016,1.762282 -0.38974,1.508106 -2.28758,2.728148 -1.89784,1.236986 -4.60905,1.236986 -1.25393,0 -1.25393,-0.54224 0,-0.321956 0.27112,-0.643911 0.25418,-0.321955 0.83031,-0.643911 0.57613,-0.30501 1.13531,-0.559186 0.57613,-0.254175 1.542,-0.57613 0.98281,-0.321956 1.64367,-0.525296 0.6778,-0.20334 1.81311,-0.525295 0.15251,-0.440571 0.15251,-0.847251 0,-0.660856 -0.40668,-1.084482 -0.40668,-0.44057 -0.99976,-0.660855 -0.57613,-0.220286 -1.1692,-0.440571 -0.57613,-0.220285 -0.98281,-0.610021 -0.40669,-0.40668 -0.40669,-1.016701 0,-0.64391 0.83031,-1.575886 0.83031,-0.931977 1.94868,-1.626722 1.13531,-0.694746 1.8809,-0.694746 0.86419,0 0.86419,1.033646 0,0.27112 -0.18639,0.745581 -0.16945,0.47446 -0.44057,0.47446 -0.13556,0 -0.23723,-0.08472 -0.0847,-0.10167 -0.0847,-0.23723 0,-0.05083 0.16945,-0.423625 0.1864,-0.389736 0.1864,-0.677801 z" />
        <path
           id="path2813"
           style="font-style:normal;font-variant:normal;font-weight:normal;font-stretch:normal;font-family:'a Auto Signature';-inkscape-font-specification:'a Auto Signature';fill:#1f1f33;fill-opacity:1;stroke-width:0.433794"
           d="m 144.70268,42.201717 q 4.11764,-2.982323 5.06656,-4.964891 0.30501,-0.660855 0.30501,-0.864196 0,-0.13556 -0.11862,-0.13556 -0.40668,0 -2.28757,2.067292 -1.8809,2.067293 -2.96538,3.897355 z m 5.23601,-6.269657 q 0.3389,0 0.3389,0.44057 0,0.389736 -0.28807,1.016701 -0.99975,2.118128 -5.6088,5.388517 -0.52529,0.965866 -0.52529,1.558941 0,0.372791 0.11861,0.372791 0.0508,0 0.35585,-0.338901 0.32195,-0.3389 0.71169,-0.74558 0.38973,-0.406681 0.98281,-0.745581 0.59308,-0.338901 1.15226,-0.338901 0.28807,0 0.45752,0.440571 0.16945,0.44057 0.23723,0.982811 0.0678,0.542241 0.3389,0.982811 0.28806,0.440571 0.77947,0.440571 0.6778,0 1.57589,-0.254176 0.91503,-0.27112 1.79617,-0.660855 0.88114,-0.406681 1.59283,-0.779471 0.72863,-0.372791 1.28782,-0.694746 0.57613,-0.338901 0.59308,-0.338901 0.10167,-0.05084 0.11861,-0.05084 0.0847,0 0.0847,0.118616 0,0.08472 -0.11862,0.13556 -0.0169,0 -0.52529,0.288065 -0.49141,0.27112 -1.03365,0.559186 -0.54224,0.27112 -1.37255,0.660855 -0.8303,0.372791 -1.59283,0.660856 -0.76252,0.27112 -1.60978,0.474461 -0.8303,0.20334 -1.49116,0.20334 -0.37279,0 -0.64391,-0.440571 -0.27112,-0.44057 -0.37279,-0.965866 -0.10167,-0.525295 -0.25417,-0.965866 -0.13556,-0.44057 -0.28807,-0.44057 -0.42362,0 -0.94892,0.355845 -0.50835,0.338901 -0.88114,0.762526 -0.37279,0.40668 -0.6778,0.762526 -0.28807,0.3389 -0.3389,0.3389 -0.6778,0 -0.6778,-0.47446 0,-0.948921 0.55918,-2.168963 0.57613,-1.236986 1.44033,-2.338412 0.8642,-1.118372 1.79617,-2.084238 0.93198,-0.965866 1.72839,-1.541997 0.81336,-0.57613 1.2031,-0.57613 z" />
        <path
           id="path2815"
           style="font-style:normal;font-variant:normal;font-weight:normal;font-stretch:normal;font-family:'a Auto Signature';-inkscape-font-specification:'a Auto Signature';fill:#1f1f33;fill-opacity:1;stroke-width:0.433794"
           d="m 155.76777,43.150638 q -0.10167,0.16945 -0.10167,0.3389 0,0.254176 0.40668,0.254176 0.66086,0 1.13532,-0.406681 0.4914,-0.423625 0.4914,-0.796416 0,-0.288065 -0.40668,-0.288065 -0.45751,0 -0.88114,0.254175 -0.42362,0.237231 -0.64391,0.643911 z m 1.96562,-1.372547 q 0.62697,0 0.62697,0.508351 0,0.559186 -0.69475,1.135316 -0.69474,0.576131 -1.6945,0.576131 -0.37279,0 -0.55918,-0.118615 -0.0339,0.20334 -0.0339,0.321955 0,0.525296 0.44057,0.864196 0.44057,0.321956 1.37254,0.321956 2.60954,0 8.015,-2.609533 0.16945,-0.08473 0.23723,-0.118616 0.10167,-0.05084 0.11861,-0.05084 0.10167,0 0.10167,0.118616 0,0.08472 -0.13556,0.13556 -1.76228,0.948921 -4.20236,1.863952 -2.42314,0.898086 -4.23626,0.898086 -1.23698,0 -1.83006,-0.372791 -0.59307,-0.37279 -0.59307,-0.965866 0,-0.864196 0.98281,-1.677557 0.96586,-0.830306 2.08423,-0.830306 z" />
        <path
           id="path2817"
           style="font-style:normal;font-variant:normal;font-weight:normal;font-stretch:normal;font-family:'a Auto Signature';-inkscape-font-specification:'a Auto Signature';fill:#1f1f33;fill-opacity:1;stroke-width:0.433794"
           d="m 166.64647,41.930597 q 3.77874,-2.812874 4.69378,-4.693771 0.28806,-0.626965 0.28806,-0.864196 0,-0.13556 -0.11861,-0.13556 -0.7117,0 -2.16897,1.762282 -1.44032,1.745337 -2.69426,3.931245 z m -0.3389,0.559185 q -1.20309,2.236743 -1.20309,3.270389 0,0.576131 0.84725,0.576131 0.66085,0 1.96562,-0.491406 1.32171,-0.491405 2.30452,-0.965866 0.98282,-0.491406 2.57565,-1.321712 1.59283,-0.830305 1.74533,-0.898086 0.10167,-0.05084 0.11862,-0.05084 0.0847,0 0.0847,0.118616 0,0.08472 -0.11861,0.13556 -0.22029,0.118615 -1.08448,0.559185 -0.84725,0.423626 -1.3556,0.677801 -0.49141,0.23723 -1.37255,0.677801 -0.8642,0.423625 -1.49116,0.677801 -0.62697,0.254175 -1.3556,0.525295 -0.71169,0.271121 -1.28783,0.406681 -0.57613,0.13556 -0.98281,0.13556 -1.23698,0 -1.23698,-1.152261 0,-1.118372 1.23698,-3.389004 1.23699,-2.270633 2.94844,-4.15153 1.71144,-1.897842 2.82982,-1.897842 0.37279,0 0.37279,0.44057 0,0.355846 -0.30501,1.016701 -1.01671,2.084238 -5.23602,5.100451 z" />
        <path
           id="path2819"
           style="font-style:normal;font-variant:normal;font-weight:normal;font-stretch:normal;font-family:'a Auto Signature';-inkscape-font-specification:'a Auto Signature';fill:#1f1f33;fill-opacity:1;stroke-width:0.433794"
           d="m 174.52591,42.659232 q 1.37254,-0.626965 2.57564,-1.575886 0.55918,-0.881141 1.23698,-1.762282 -0.66085,0.05083 -1.40643,0.10167 -0.74558,0.05083 -1.13532,0.08472 -0.38973,0.01694 -0.44057,0.01694 -0.13556,0 -0.13556,-0.118615 0,-0.06778 0.0847,-0.06778 2.28757,-0.271121 3.30428,-0.355846 0.91503,-1.135316 1.72839,-1.914787 0.8303,-0.796416 1.03364,-0.796416 0.23723,0 0.23723,0.474461 0,0.288065 -1.74533,2.135072 2.25368,-0.152505 4.72766,-0.152505 0.71169,0 0.71169,0.23723 0,0.16945 -0.20334,0.16945 -0.0339,0 -0.61002,-0.01694 -0.57613,-0.03389 -0.88114,-0.03389 -1.03365,0 -4.08375,0.169451 -0.10167,0.118615 -1.13532,1.152261 -2.23674,3.050103 -2.23674,4.744605 0,0.677801 1.05059,0.677801 0.89808,0 2.44008,-0.457515 1.55894,-0.457516 3.10094,-1.101427 1.542,-0.660855 2.42314,-1.050591 0.89808,-0.389735 1.22004,-0.559186 0.10167,-0.05084 0.13556,-0.05084 0.0847,0 0.0847,0.118616 0,0.08472 -0.11861,0.13556 -0.1864,0.10167 -0.76253,0.37279 -0.57613,0.254175 -1.79617,0.762526 -1.2031,0.508351 -2.3723,0.948921 -1.15226,0.423626 -2.42314,0.745581 -1.25393,0.3389 -2.05035,0.3389 -0.74558,0 -1.11837,-0.220285 -0.37279,-0.20334 -0.37279,-0.796416 0,-1.338656 1.18615,-3.422894 -1.03364,0.745581 -2.16896,1.270877 -0.0678,0.03389 -0.11861,0.03389 -0.0847,0 -0.0847,-0.10167 0,-0.08472 0.11862,-0.135561 z" />
        <path
           id="path2821"
           style="font-style:normal;font-variant:normal;font-weight:normal;font-stretch:normal;font-family:'a Auto Signature';-inkscape-font-specification:'a Auto Signature';fill:#1f1f33;fill-opacity:1;stroke-width:0.433794"
           d="m 187.89552,43.862329 q -0.55918,-0.525296 -0.55918,-1.525052 0,0 0,-0.03389 -0.1864,0.23723 -0.57613,0.508351 -0.64391,1.287821 -0.64391,1.914787 0,0.593075 0.3389,0.593075 0.6778,0 1.44032,-1.457271 z m 0.28807,-0.626966 q 0.30501,-0.830306 0.30501,-1.186151 0,-0.389736 -0.15251,-0.389736 -0.13556,0 -0.23723,0.186396 -0.0847,0.16945 -0.0847,0.423625 0,0.610021 0.16945,0.965866 z m -1.62672,2.389248 q -0.91503,0 -0.91503,-1.152261 0,-0.999757 0.61002,-1.745337 0.61002,-0.745581 1.03364,-0.745581 0.0339,0 0.10167,0.03389 0.0847,-0.271121 0.28807,-0.440571 0.20334,-0.186395 0.4914,-0.186395 0.23723,0 0.38974,0.220285 0.16945,0.220286 0.16945,0.643911 0,0.593076 -0.3389,1.355602 0.57613,0.762525 1.93173,0.762525 0.98281,0 2.35536,-0.389735 1.37255,-0.406681 2.10118,-0.728636 0.72864,-0.321955 1.28782,-0.593076 0.10167,-0.05084 0.13556,-0.05084 0.0847,0 0.0847,0.118616 0,0.08472 -0.11862,0.13556 -0.89808,0.457515 -2.77898,1.067536 -1.8809,0.593076 -3.389,0.593076 -1.16921,0 -1.84701,-0.423626 -0.83031,1.525052 -1.59283,1.525052 z" />
        <path
           id="path2823"
           style="font-style:normal;font-variant:normal;font-weight:normal;font-stretch:normal;font-family:'a Auto Signature';-inkscape-font-specification:'a Auto Signature';fill:#1f1f33;fill-opacity:1;stroke-width:0.433794"
           d="m 197.77447,44.84514 q -0.59308,0 -0.59308,-0.508351 0,-0.288065 0.28807,-0.948921 0.28806,-0.660855 0.28806,-0.864196 0,-0.152505 -0.20334,-0.152505 -0.18639,0 -0.54224,0.118615 -0.3389,0.118615 -0.59307,0.254176 l -0.25418,0.118615 q -0.0678,0.03389 -0.11861,0.03389 -0.0847,0 -0.0847,-0.10167 0,-0.08472 0.11862,-0.135561 0.98281,-0.491405 1.6945,-0.491405 0.61002,0 0.61002,0.355845 0,0.01694 -0.13556,0.372791 -0.13556,0.3389 -0.28807,0.762526 -0.13556,0.40668 -0.13556,0.593075 0,0.16945 0.11862,0.16945 0.0508,0 0.50835,-0.457515 0.45752,-0.474461 1.18615,-0.931976 0.72864,-0.474461 1.42338,-0.474461 0.38974,0 0.57613,0.389736 0.20334,0.37279 0.25418,0.847251 0.0508,0.457515 0.3389,0.847251 0.28806,0.37279 0.8642,0.37279 0.74558,0 1.847,-0.321955 1.11837,-0.338901 1.96562,-0.711691 0.84726,-0.37279 1.77923,-0.813361 0.94892,-0.457515 1.08448,-0.508351 0.10167,-0.05084 0.11862,-0.05084 0.0847,0 0.0847,0.118616 0,0.08472 -0.11861,0.13556 -4.57516,2.287577 -6.65939,2.287577 -0.62697,0 -1.06754,-0.152505 -0.42363,-0.16945 -0.62697,-0.40668 -0.18639,-0.254176 -0.32195,-0.525296 -0.11862,-0.288065 -0.16945,-0.525296 -0.0339,-0.254175 -0.15251,-0.40668 -0.10167,-0.16945 -0.27112,-0.16945 -0.42362,0 -0.94892,0.30501 -0.50835,0.288065 -0.88114,0.643911 -0.35584,0.3389 -0.64391,0.643911 -0.28807,0.288065 -0.3389,0.288065 z" />
      </g>
      <text
         xml:space="preserve"
         id="text900"
         style="font-style:normal;font-variant:normal;font-weight:bold;font-stretch:normal;font-size:14.1111px;line-height:1.25;font-family:'Cormorant Garamond';-inkscape-font-specification:'Cormorant Garamond Bold';white-space:pre;shape-inside:url(#rect902);fill:#78244c;fill-opacity:1;stroke:none;"><tspan
           x="-19.611328"
           y="7.460426"><tspan
             style="font-style:normal;font-variant:normal;font-weight:bold;font-stretch:normal;font-size:14.1111px;font-family:'Cormorant Garamond';-inkscape-font-specification:'Cormorant Garamond Bold';fill:#78244c;fill-opacity:1">BETHANY SHELTON</tspan></tspan></text>
    </g>
  </g>
</svg>
